<svg version="1.1" viewBox="0.0 0.0 960.0 723.1574803149606" fill="none" stroke="none" stroke-linecap="square" stroke-miterlimit="10" xmlns:xlink="http://www.w3.org/1999/xlink" xmlns="http://www.w3.org/2000/svg"><clipPath id="p.0"><path d="m0 0l960.0 0l0 723.1575l-960.0 0l0 -723.1575z" clip-rule="nonzero"/></clipPath><g clip-path="url(#p.0)"><path fill="#000000" fill-opacity="0.0" d="m0 0l960.0 0l0 723.1575l-960.0 0z" fill-rule="evenodd"/><path fill="#9966ff" d="m-6.703412 -1.9160105l966.7087 0l0 361.92126l-966.7087 0z" fill-rule="evenodd"/><path fill="#ffff66" d="m-6.703412 360.0l966.7087 0l0 361.92126l-966.7087 0z" fill-rule="evenodd"/><path fill="#000000" fill-opacity="0.0" d="m367.68152 293.6555c19.455719 -24.135376 79.19821 -144.3851 116.73422 -144.81232c37.53598 -0.42721558 90.40152 118.54086 108.48178 142.24905" fill-rule="evenodd"/><path stroke="#38761d" stroke-width="16.0" stroke-linejoin="round" stroke-linecap="butt" d="m419.1121 212.5944l0.15640259 -0.23564148c22.0596 -33.13275 46.37921 -63.301987 65.14722 -63.515594c37.53601 -0.42721558 90.40149 118.54086 108.48181 142.24905" fill-rule="evenodd"/><path fill="#38761d" stroke="#38761d" stroke-width="16.0" stroke-linecap="butt" d="m396.79688 198.43616l-16.584259 75.46878l61.21469 -47.152283z" fill-rule="evenodd"/><path fill="#000000" fill-opacity="0.0" d="m600.68677 297.88422c12.4869995 28.229706 92.27246 136.7142 74.922 169.37823c-17.350525 32.664 -149.18744 22.17154 -179.0249 26.605835" fill-rule="evenodd"/><path stroke="#38761d" stroke-width="16.0" stroke-linejoin="round" stroke-linecap="butt" d="m649.2247 380.70972l0.11212158 0.20071411c19.33844 34.73285 34.947205 70.02002 26.271973 86.35199c-17.350464 32.664062 -149.18744 22.17154 -179.0249 26.605865" fill-rule="evenodd"/><path fill="#38761d" stroke="#38761d" stroke-width="16.0" stroke-linecap="butt" d="m672.02563 367.34778l-59.512573 -49.28311l13.910706 76.00702z" fill-rule="evenodd"/><path fill="#000000" fill-opacity="0.0" d="m478.50406 489.06165c-31.293213 -2.043213 -166.11853 17.841766 -187.75922 -12.259369c-21.640686 -30.101105 48.262634 -140.28949 57.91516 -168.34738" fill-rule="evenodd"/><path stroke="#38761d" stroke-width="16.0" stroke-linejoin="round" stroke-linecap="butt" d="m382.60278 493.4138l-1.5980225 0.039916992c-40.32309 0.95321655 -79.439575 -1.6008606 -90.25992 -16.651428c-21.640686 -30.101135 48.262634 -140.28949 57.91513 -168.34738" fill-rule="evenodd"/><path fill="#38761d" stroke="#38761d" stroke-width="16.0" stroke-linecap="butt" d="m383.80084 519.81433l71.33682 -29.69226l-73.73297 -23.108826z" fill-rule="evenodd"/><path fill="#000000" fill-opacity="0.0" d="m385.4357 266.74014l196.31497 0l0 202.17325l-196.31497 0z" fill-rule="evenodd"/><path fill="#000000" fill-opacity="0.0" d="m427.17322 275.21783l120.0 0l0 146.07877l-120.0 0z" fill-rule="evenodd"/><path fill="#000000" fill-opacity="0.0" d="m365.7848 253.33858l221.7323 0l0 42.015762l-221.7323 0z" fill-rule="evenodd"/><path fill="#000000" fill-opacity="0.0" d="m11.086615 19.564304l86.74016 0l0 90.645676l-86.74016 0z" fill-rule="evenodd"/><path fill="#000000" fill-opacity="0.0" d="m35.913387 17.782152l140.6929 0l0 174.51968l-140.6929 0z" fill-rule="evenodd"/><path fill="#000000" d="m140.02277 91.55278q0.640625 0 1.203125 0.125q0.578125 0.125 1.21875 0.125q0.640625 0.125 1.40625 0.203125q0.78125 0.0625 1.546875 0.1875q1.40625 0.25 2.8125 0.953125q1.40625 0.703125 2.046875 2.109375q0.890625 1.421875 0.890625 3.328125q0 1.03125 -0.0625 1.859375q-0.0625 0.828125 -0.3125 1.859375q-0.265625 1.015625 -0.59375 2.171875q-0.3125 1.15625 -1.203125 1.796875q-1.796875 1.28125 -3.453125 1.65625q-2.046875 0.265625 -5.0 0.140625q-2.9375 -0.140625 -4.984375 0q-0.125 0 -0.25 0.125l-0.140625 0l-0.125 0.125l0 0.390625q-0.125 3.1875 -0.0625 7.359375q0.0625 4.15625 0.0625 7.484375q0.265625 6.65625 0 13.046875l0 1.796875q0 1.671875 -0.0625 3.65625q-0.0625 1.984375 -0.328125 3.90625q-0.25 1.90625 -0.890625 3.640625q-0.640625 1.71875 -1.78125 2.875q-1.546875 1.796875 -4.1093826 1.796875q0 0 -0.25 -0.125q-3.078125 -0.125 -4.9375 -1.796875q-1.84375 -1.65625 -2.8125 -4.09375q-0.953125 -2.4375 -1.21875 -5.0625q-0.25 -2.625 -0.25 -4.671875l0 -76.03125q0 -0.125 0 -1.203125q0 -1.09375 0.25 -2.5625q0.265625 -1.484375 0.84375 -3.078125q0.578125 -1.59375 1.59375 -2.625q0.90625 -0.890625 2.625 -1.34375q1.734375 -0.453125 3.140625 -0.453125q2.8125076 0 4.7343826 1.921875q1.796875 1.796875 2.109375 3.78125q0.328125 1.984375 0.578125 4.15625q0.125 0.515625 0.125 1.53125q0.265625 2.1874962 0.328125 4.499996q0.0625 2.296875 0.1875 4.59375q0 0.640625 0 1.546875q0 0.890625 0.0625 2.6875q0.0625 1.78125 0.0625 4.796875q0 3.0 0 7.734375q0 0.640625 0 1.40625q0 0.765625 0.265625 1.40625q0 0.140625 1.265625 0.140625q1.28125 0 1.421875 0q1.140625 0.25 1.78125 0.125l0.265625 0zm-69.51563 19.328125q-1.28125 0.25 -1.796875 0.953125q-0.5 0.703125 -0.625 1.671875q-0.125 0.953125 0 1.984375q0.125 1.015625 0.125 1.921875q0 1.65625 0 4.671875q0 3.0 0.25 4.796875q0 0.890625 -0.0625 2.296875q-0.0625 1.40625 0.578125 2.046875q0 0.265625 0.25 0.390625q0.265625 0.125 0.515625 0.125q1.40625 0 3.515625 0.0625q2.125 0.0625 4.296875 0.0625q2.171875 0 4.28125 0q2.125 0 3.53125 -0.125q4.46875 0 9.390625 -0.1875q4.9375 -0.1875 9.421875 0.1875q1.796875 0.265625 2.75 0.96875q0.953125 0.703125 1.59375 1.71875q0.78125 1.03125 1.03125 1.734375q0.25 0.703125 0.25 2.109375q0.265625 1.53125 -0.1875 2.9375q-0.453125 1.40625 -1.09375 2.3125q-0.640625 0.765625 -1.46875 1.34375q-0.828125 0.578125 -1.859375 1.21875q-2.546875 1.28125 -5.046875 1.21875q-2.5 -0.078125 -5.1875 0.1875q-2.296875 0 -5.25 0.125q-2.9375 0.125 -5.375 -0.125q-1.015625 -0.125 -2.5 -0.125q-1.46875 0 -3.078125 0q-1.59375 0 -3.0625 0.0625q-1.46875 0.0625 -2.359375 0.0625q-1.796875 -0.265625 -3.46875 -0.125q-1.65625 0.125 -3.453125 0.125q-3.0624962 -0.265625 -6.140621 -0.703125q-3.078125 -0.453125 -5.625 -2.25q-1.03125 -0.640625 -1.671875 -1.59375q-0.640625 -0.96875 -1.015625 -1.984375q-1.671875 -3.578125 -1.28125 -7.546875q0.125 -3.078125 0.0625 -5.703125q-0.0625 -2.625 -0.140625 -5.25q-0.0625 -2.625 -0.125 -5.375q-0.0625 -2.75 -0.0625 -5.953125q0 -2.421875 -0.0625 -5.875q-0.0625 -3.46875 1.09375 -5.515625q1.15625 -1.921875 2.5625 -2.875q1.40625 -0.96875 3.0 -1.28125q1.609375 -0.328125 3.328125 -0.328125q1.734375 0 3.515625 0l13.062496 0q1.53125 0 4.21875 -0.0625q2.6875 -0.0625 4.359375 -0.4375q1.15625 -0.640625 1.53125 -1.671875q0.640625 -3.453125 0.703125 -7.359375q0.0625 -3.90625 -0.1875 -7.359375q0 -1.40625 0 -3.703125q0 -2.3125 -0.765625 -3.46875q-0.90625 -1.40625 -3.96875 -1.40625l-23.812496 0.390625q-1.796875 0 -3.96875 -0.515625q-2.171875 -0.515625 -3.328125 -1.921875q-0.375 -0.640625 -0.765625 -1.28125q-0.390625 -0.640625 -0.765625 -1.65625q-1.03125 -3.7187462 0.5625 -6.593746q1.609375 -2.890625 5.203125 -3.78125q3.0625 -0.640625 6.125 -0.4375q3.0781212 0.1875 6.156246 -0.078125l19.328125 0q2.5625 0 5.25 0q2.6875 0 5.25 0.78125q2.8125 1.015625 4.609375 4.09375q0.25 0.640625 0.375 1.15625q0.125 0.5 0.390625 1.40625q0.25 0.625 0.375 1.140625q0.140625 0.515625 0.140625 1.15625q0.25 2.1718712 0.25 5.312496q0 3.140625 0 5.1875q0 4.21875 0.125 8.453125q0.125 4.21875 0.125 8.5625q0 4.484375 -0.0625 8.203125q-0.0625 3.703125 -1.21875 6.65625q-1.28125 2.6875 -3.578125 3.453125q-2.171875 1.015625 -4.734375 0.953125q-2.5625 -0.0625 -4.734375 -0.0625q-1.40625 0 -3.53125 0q-2.109375 0 -4.28125 0.0625q-2.171875 0.0625 -4.09375 0.0625q-1.921875 0 -3.078125 0q-1.015625 0 -1.46875 0q-0.453125 0 -0.84375 0q-0.375 0 -0.828125 0.0625q-0.4375 0.0625 -1.46875 0.328125z" fill-rule="nonzero"/><path fill="#000000" fill-opacity="0.0" d="m800.30444 9.782152l140.69293 0l0 174.51968l-140.69293 0z" fill-rule="evenodd"/><path fill="#000000" d="m895.44507 93.537155q2.171875 0.125 4.40625 0.640625q2.25 0.515625 4.046875 1.921875q1.796875 1.40625 1.796875 3.96875q0 1.28125 -0.453125 2.8125q-0.453125 1.53125 -1.21875 2.171875q-1.015625 1.03125 -2.625 1.484375q-1.59375 0.4375 -3.140625 0.640625q-1.53125 0.1875 -2.625 0.1875q-1.078125 0 -1.203125 0l-68.234375 0.125q-2.9375 0.125 -6.078125 0q-3.125 -0.125 -5.3125 -1.921875q-2.9375 -2.171875 -2.9375 -5.0q0 -1.78125 1.203125 -3.640625q1.21875 -1.859375 3.28125 -2.5q2.6875 -0.890625 5.5 -0.828125q2.8125 0.0625 5.75 -0.0625q3.078125 -0.125 5.3125 -0.125q2.25 0 4.359375 0q2.109375 0 4.40625 0.0625q2.3125 0.0625 5.515625 0.0625l0 -9.609375q-16.0 -0.890625 -24.203125 -5.5q-8.1875 -4.609375 -8.1875 -14.593746q0 -10.484375 11.0 -15.34375q11.015625 -4.875 32.53125 -5.0q9.71875 0 17.78125 1.03125q8.0625 1.015625 13.828125 3.390625q5.765625 2.359375 8.890625 6.265625q3.140625 3.90625 3.140625 9.65625q0 10.624996 -9.15625 15.171871q-9.140625 4.546875 -27.703125 5.1875q0.125 2.296875 0.1875 5.0625q0.0625 2.75 0.0625 4.28125q3.578125 0 7.671875 -0.0625q4.109375 -0.0625 8.203125 -0.0625q4.09375 0 7.796875 0q3.71875 0 6.40625 0.125zm1.15625 36.734375q0.125 0 0.890625 0.265625q0.765625 0.25 1.71875 0.828125q0.96875 0.5625 1.796875 1.53125q0.84375 0.953125 1.09375 2.234375q0.765625 4.875 -1.53125 7.5625q-1.40625 1.78125 -3.078125 2.15625q-1.65625 0.390625 -1.78125 0.390625l-69.890625 0q-4.875 0 -7.6875 -1.59375q-2.8125 -1.59375 -2.8125 -4.546875l0 -11.390625q-0.125 -1.40625 -0.125 -3.515625q0 -2.109375 0.125 -3.515625q0.25 -2.703125 2.046875 -4.359375q1.796875 -1.671875 4.484375 -1.671875q0.640625 0 1.71875 0.078125q1.09375 0.0625 1.734375 0.3125q1.65625 0.515625 2.546875 1.734375q0.90625 1.203125 1.421875 2.75q0.515625 1.53125 0.640625 3.265625q0.125 1.71875 0.25 3.125q0 1.03125 0.125 2.125q0.140625 1.078125 0.390625 1.984375q0.25 0.125 2.359375 0.3125q2.125 0.1875 6.609375 0.1875q3.828125 0 6.828125 -0.125q3.015625 -0.125 3.140625 -0.125l46.984375 0zm-12.15625 -66.4375q0 -2.046875 -1.921875 -3.578125q-1.921875 -1.53125 -5.375 -2.546875q-3.453125 -1.03125 -8.265625 -1.546875q-4.796875 -0.515625 -10.546875 -0.515625q-25.21875 0 -25.21875 8.1875q0 3.5937462 6.453125 5.640621q6.46875 2.046875 18.5 1.921875q4.609375 0 9.28125 -0.3125q4.671875 -0.328125 8.515625 -1.15625q3.84375 -0.84375 6.203125 -2.3125q2.375 -1.46875 2.375 -3.7812462z" fill-rule="nonzero"/><path fill="#000000" fill-opacity="0.0" d="m35.913387 543.1312l140.6929 0l0 174.51971l-140.6929 0z" fill-rule="evenodd"/><path fill="#000000" d="m104.69463 603.58936q-1.15625 -0.765625 -2.4375 -1.59375q-1.28125 -0.84375 -2.6875 -1.359375q-4.484375 -1.78125 -9.796875 -1.96875q-5.3125 -0.203125 -9.921875 1.96875q-3.703125 1.796875 -6.203125 4.484375q-2.5 2.6875 -4.03125 6.015625q-1.53125 3.328125 -2.3125 7.046875q-0.765625 3.703125 -0.890625 7.421875q3.453125 -3.453125 8.4375 -6.203125q5.0 -2.765625 12.8125 -2.765625q6.53125 0 12.21875 1.859375q5.703125 1.859375 9.921875 5.453125q4.234375 3.578125 6.65625 8.828125q2.4375 5.25 2.4375 12.03125q0 6.78125 -2.5625 12.359375q-2.5625 5.5625 -6.984375 9.59375q-4.40625 4.03125 -10.484375 6.265625q-6.078125 2.234375 -13.125 2.234375q-8.1875 0 -14.265625 -2.484375q-6.078125 -2.5 -10.562496 -6.859375q-2.5625 -2.546875 -4.546875 -5.6875q-1.984375 -3.140625 -3.390625 -7.171875q-1.40625 -4.03125 -2.171875 -9.28125q-0.765625 -5.25 -0.765625 -12.03125q0 -5.625 0.765625 -11.390625q0.765625 -5.765625 2.625 -11.140625q1.859375 -5.375 4.921875 -10.109375q3.078125 -4.734375 7.687496 -8.453125q4.34375 -3.453125 9.46875 -5.359375q5.125 -1.921875 10.5 -2.171875q5.375 -0.265625 10.75 1.015625q5.375 1.28125 10.109375 4.21875q1.28125 0.765625 2.9375 2.25q1.671875 1.46875 2.8125 3.265625q1.15625 1.78125 1.40625 4.03125q0.265625 2.234375 -1.265625 4.53125q-0.265625 0.515625 -1.15625 1.03125q-0.890625 0.5 -2.046875 0.765625q-1.15625 0.25 -2.4375 0.125q-1.28125 -0.125 -2.421875 -0.765625zm-19.84375 28.40625q-4.359375 0.265625 -8.203125 2.25q-3.828125 1.984375 -6.640625 5.3125q-1.796875 2.171875 -2.0625 4.921875q-0.25 2.75 0.390625 5.4375q0.515625 3.203125 2.5625 5.578125q2.046875 2.359375 4.796875 3.84375q2.75 1.46875 6.015625 2.046875q3.265625 0.5625 6.34375 0.1875q3.453125 -0.390625 6.328125 -1.859375q2.890625 -1.46875 4.9375 -3.703125q2.046875 -2.25 3.125 -5.25q1.09375 -3.015625 0.703125 -6.46875q-0.375 -3.71875 -1.921875 -6.203125q-1.53125 -2.5 -3.96875 -3.90625q-2.421875 -1.40625 -5.625 -1.859375q-3.203125 -0.453125 -6.78125 -0.328125z" fill-rule="nonzero"/><path fill="#000000" fill-opacity="0.0" d="m816.30444 543.1312l140.69293 0l0 174.51971l-140.69293 0z" fill-rule="evenodd"/><path fill="#000000" d="m884.17944 585.6675q0.90625 1.40625 1.15625 3.578125q0.640625 4.484375 0.578125 9.15625q-0.0625 4.671875 0.0625 9.15625q0 5.25 0.0625 10.375q0.0625 5.109375 0.0625 10.359375l0 10.875l5.5 0q1.421875 0 2.953125 0.328125q1.53125 0.3125 2.8125 1.09375q1.28125 0.765625 2.171875 1.921875q0.90625 1.140625 1.03125 2.796875q0 4.109375 -2.5625 5.578125q-2.5625 1.46875 -6.140625 1.71875q-0.265625 0 -1.09375 0.078125q-0.828125 0.0625 -1.859375 0.0625q-1.015625 0 -1.859375 0q-0.828125 0 -0.953125 -0.265625l0 8.703125q0 1.40625 0 3.203125q0 1.796875 -0.265625 3.53125q-0.25 1.71875 -0.953125 3.265625q-0.703125 1.53125 -2.109375 2.421875q-0.640625 0.375 -1.609375 0.578125q-0.953125 0.1875 -2.109375 0.3125q-1.140625 0.125 -2.234375 0.0625q-1.078125 -0.0625 -1.859375 -0.3125q-2.296875 -0.765625 -2.9375 -3.265625q-0.640625 -2.5 -0.890625 -4.671875q0 -0.390625 0 -2.5q0 -2.109375 0 -4.46875q0 -2.375 -0.140625 -4.296875q-0.125 -1.921875 -0.375 -1.921875l-22.53125 0q-3.703125 0 -7.8125 -0.125q-4.09375 -0.125 -7.03125 -2.296875q-2.3125 -1.671875 -2.703125 -3.78125q-0.375 -2.109375 0.328125 -4.21875q0.703125 -2.125 2.109375 -4.171875q1.421875 -2.046875 2.703125 -3.703125q4.859375 -6.53125 9.390625 -13.3125q4.546875 -6.78125 9.15625 -13.4375q2.5625 -3.46875 5.3125 -6.65625q2.75 -3.203125 5.1875 -6.65625q1.796875 -2.6875 3.90625 -5.5q2.109375 -2.828125 5.3125 -4.359375q3.078125 -1.40625 5.890625 -1.40625q2.8125 0 4.34375 2.171875zm-12.671875 23.046875l-21.25 29.9375l21.25 0l0 -29.9375z" fill-rule="nonzero"/><path fill="#ffc843" d="m392.57343 360.00043l0 0c0 -46.435028 37.643036 -84.078064 84.078064 -84.078064l0 0c22.29889 0 43.68451 8.858185 59.45221 24.625885c15.7677 15.7677 24.625854 37.15329 24.625854 59.45218l0 0c0 46.43506 -37.643005 84.078094 -84.078064 84.078094l0 0c-46.435028 0 -84.078064 -37.643036 -84.078064 -84.078094z" fill-rule="evenodd"/><path fill="#d49000" d="m413.07062 360.00043l0 0c0 -35.114746 28.466125 -63.58087 63.58087 -63.58087l0 0c16.862701 0 33.03476 6.6987 44.958496 18.622406c11.923706 11.923737 18.622375 28.095795 18.622375 44.958466l0 0c0 35.114746 -28.466125 63.580902 -63.58087 63.580902l0 0c-35.114746 0 -63.58087 -28.466156 -63.58087 -63.580902z" fill-rule="evenodd"/><path fill="#000000" fill-opacity="0.0" d="m437.46024 280.23975l88.2001 0l0 132.319l-88.2001 0z" fill-rule="evenodd"/><path fill="#ffc843" d="m506.10086 376.92548q0 5.625 -2.625 9.34375q-2.609375 3.703125 -9.015625 8.828125q-4.984375 3.96875 -11.640625 4.734375q0 5.765625 0.125 6.90625q0 1.28125 -0.84375 1.921875q-0.828125 0.640625 -2.109375 0.640625q-1.65625 0 -3.0 -1.09375q-1.34375 -1.078125 -1.34375 -3.0q0 -2.171875 -0.265625 -4.984375q-2.8125 -0.140625 -5.25 -1.03125q-2.421875 -0.890625 -4.03125 -1.65625q-1.59375 -0.78125 -2.109375 -1.03125q-4.609375 -3.203125 -6.921875 -5.1875q-2.296875 -1.984375 -3.703125 -4.40625q-1.40625 -2.4375 -1.40625 -5.765625q0 -3.203125 1.40625 -4.40625q1.40625 -1.21875 5.125 -1.21875q1.671875 0 3.203125 0.890625q1.53125 0.890625 2.296875 2.171875q4.234375 7.546875 10.890625 9.34375q0 -0.765625 0.25 -8.5625q0.25 -7.8125 0.390625 -15.75q-7.296875 -2.5625 -10.375 -4.09375q-12.421875 -6.15625 -12.421875 -17.921875q0 -5.0 3.453125 -10.25q3.46875 -5.25 8.078125 -7.421875q1.78125 -0.890625 5.109375 -2.046875q3.328125 -1.15625 6.40625 -1.921875q0 -3.578125 -0.125 -5.25q0 -2.296875 1.140625 -3.25q1.15625 -0.96875 2.3125 -0.96875q2.9375 0 3.640625 2.046875q0.703125 2.046875 0.578125 7.046875q4.09375 0.375 9.09375 3.0625q5.765625 3.328125 8.375 5.828125q2.625 2.5 2.625 6.328125q0 2.1875 -1.796875 3.59375q-1.78125 1.40625 -5.875 1.40625q-1.796875 0 -4.609375 -3.578125q-2.5625 -2.828125 -3.96875 -3.46875q-0.515625 -0.125 -1.671875 -0.5625q-1.140625 -0.453125 -2.296875 -0.71875q0 11.65625 -0.25 19.328125l0 1.921875q6.90625 3.078125 11.390625 5.890625q6.140625 3.84375 8.953125 7.625q2.8125 3.765625 2.8125 10.6875zm-40.4375 -35.96875q0 2.5625 2.421875 4.796875q2.4375 2.234375 5.640625 3.390625l1.921875 0.640625l0 -18.4375q-4.234375 0.90625 -7.109375 3.34375q-2.875 2.421875 -2.875 6.265625zm17.015625 46.84375q4.609375 -1.28125 7.421875 -4.34375q2.828125 -3.078125 2.828125 -6.28125q0 -5.625 -10.109375 -10.234375q-0.140625 6.515625 -0.140625 20.859375z" fill-rule="nonzero"/></g></svg>